<?xml version="1.0" encoding="UTF-8"?>
<svg id="Layer_1" data-name="Layer 1" xmlns="http://www.w3.org/2000/svg" version="1.1" viewBox="0 0 121.5 168.5">
  <defs>
    <style>
      .cls-1 {
        fill: none;
      }

      .cls-1, .cls-2, .cls-3 {
        stroke-width: 0px;
      }

      .cls-2, .cls-3 {
        fill: #000;
      }

      .cls-3 {
        fill-rule: evenodd;
      }
    </style>
  </defs>
  <path class="cls-2" d="M70.2,136.5c-1.4-37.9-1.8-74.3-44-103,23.6,9.5,36.3,25.5,43.2,43.4,7-17.3,19.6-32.8,42.7-42-51.7,35.2-36.8,67.6-33.8,102l-8.1-.4h0Z"/>
  <path class="cls-3" d="M57.5,71.5C16.8,85.3-5.7,31.6,1.2,0c31.7,7.8,79.6,11.9,65.7,61.8C71.2,20.4,34.1,12.4,9.8,11.3c-4.8,18.4,13.3,62,47.7,60.2h0Z"/>
  <path class="cls-3" d="M85.1,65.1c25.7,8.8,40-25.3,35.6-45.3-20.1,5-50.4,7.5-41.6,39.2-2.7-26.2,20.8-31.3,36.2-32,3,11.6-8.4,39.3-30.2,38.1h0Z"/>
  <path class="cls-3" d="M94.8,131.8c-11.9-9-20-2.1-26.1,3.9-3.6,3.6-11.8,2.9-19.8-3.9.1,4,1.1,7.7,3.1,11.2,2.1,3.7,4.9,6.5,8.4,8.5,3.5,2,7.3,3,11.5,3s8-1,11.5-3c3.5-2,6.3-4.8,8.4-8.5,1.9-3.5,3-7.2,3.1-11.2h0Z"/>
  <path class="cls-1" d="M59.4,115.1v-7.4c-8.6,4.7-14.5,14.2-14.5,24.8s11.3,27.4,26.9,27.4,26.9-12.3,26.9-27.4-6.7-21.2-16.1-25.6v8.2h-23.3Z"/>
  <path class="cls-2" d="M82.7,97.5v9.4c9.4,4.4,16.1,14.3,16.1,25.6s-11.4,27.4-26.9,27.4-26.9-12.3-26.9-27.4,5.9-20.1,14.5-24.8v-9.6c-14.1,5.2-23.6,18.8-23.6,34.3s15.2,36.1,36,36.1,36-16.5,36-36.1-10.2-30.2-25.2-34.9Z"/>
</svg>